<?xml version="1.0" standalone="no"?>
<!DOCTYPE svg PUBLIC "-//W3C//DTD SVG 20010904//EN"
 "http://www.w3.org/TR/2001/REC-SVG-20010904/DTD/svg10.dtd">
<svg version="1.0" xmlns="http://www.w3.org/2000/svg"
 width="1024.000000pt" height="1024.000000pt" viewBox="0 0 1024.000000 1024.000000"
 preserveAspectRatio="xMidYMid meet">
<metadata>
Created by potrace 1.14, written by Peter Selinger 2001-2017
</metadata>
<g transform="translate(0.000000,1024.000000) scale(0.100000,-0.100000)"
fill="#000000" stroke="none">
<path d="M2277 8624 c-1 -1 -31 -5 -67 -8 -136 -14 -306 -83 -417 -172 -185
-147 -319 -368 -348 -574 -13 -97 -15 -132 -15 -325 1 -938 2 -4444 1 -4680 0
-165 1 -320 3 -345 7 -82 16 -145 25 -178 5 -17 8 -32 6 -32 -6 0 40 -130 66
-185 56 -122 171 -259 286 -341 119 -86 282 -143 450 -159 60 -5 5753 -6 5761
-1 4 2 32 7 62 11 90 11 247 78 347 146 27 18 76 62 111 97 145 149 238 347
259 546 3 39 7 1275 7 2746 l0 2675 -22 82 c-45 173 -122 304 -257 438 -130
129 -280 213 -440 247 -35 7 -941 11 -2933 12 -1586 1 -2884 1 -2885 0z"/>
</g>
</svg>
